<svg xmlns="http://www.w3.org/2000/svg" viewBox="0 0 64 64" width="64" height="64">
  <rect width="64" height="64" rx="14" fill="#1A1618"/>
  <g>
    <rect x="11" y="18.6" width="5.1" height="13.4" fill="#DC0806"/>
    <rect x="16.1" y="18.6" width="5.1" height="13.4" fill="#FE6B00"/>
    <rect x="21.2" y="18.6" width="5.1" height="13.4" fill="#DC0806"/>
    <rect x="26.3" y="18.6" width="5.1" height="13.4" fill="#3A363A"/>
    <rect x="31.4" y="18.6" width="5.1" height="13.4" fill="#DC0806"/>
    <rect x="36.5" y="18.6" width="5.1" height="13.4" fill="#DC0806"/>
    <rect x="41.6" y="18.6" width="5.1" height="13.4" fill="#FE6B00"/>
    <rect x="46.7" y="18.6" width="5.1" height="13.4" fill="#DC0806"/>
    <rect x="11" y="32" width="5.1" height="13.4" fill="#DC0806"/>
    <rect x="16.1" y="32" width="5.1" height="13.4" fill="#FE6B00"/>
    <rect x="21.2" y="32" width="5.1" height="13.4" fill="#DC0806"/>
    <rect x="26.3" y="32" width="5.1" height="13.4" fill="#3A363A"/>
    <rect x="31.4" y="32" width="5.1" height="13.4" fill="#DC0806"/>
    <rect x="36.5" y="32" width="5.1" height="13.4" fill="#DC0806"/>
    <rect x="41.6" y="32" width="5.1" height="13.4" fill="#FE6B00"/>
    <rect x="46.7" y="32" width="5.1" height="13.4" fill="#DC0806"/>
  </g>
</svg>
